<svg width="5050" height="3777" viewBox="0 0 5050 3777" fill="none" xmlns="http://www.w3.org/2000/svg">
<g clip-path="url(#clip0)">
<rect width="5050" height="3777" fill="url(#paint0_linear)"/>
<path fill-rule="evenodd" clip-rule="evenodd" d="M-1024.2 -4.64198C-1356.66 192.99 -928.067 236.738 -450.149 285.521C-297.386 301.115 -139.584 317.222 0.0136702 339.034V2391.74C-164.296 2914.07 -246.871 3472.51 -117.243 3807.17C56.3109 4255.23 627.317 4285.74 845.786 4297.41H845.792H845.798H845.808H845.821C865.133 4298.45 881.69 4299.33 894.971 4300.35C1016.27 4309.6 1099.21 4374.36 1176.23 4434.51C1309.93 4538.91 1425.8 4629.39 1693.56 4391.46C1816.08 4282.59 1941.52 4105.27 2045.3 3890.88C2439.94 4261.98 3285.44 4291.03 3631.49 4302.92H3631.51H3631.52H3631.53L3631.56 4302.92C3665.76 4304.1 3695.08 4305.11 3718.61 4306.26C4017.81 4320.94 4281.42 4318.35 4566.74 4255.91C4712.13 4287.59 4814.89 4305.93 4842.64 4308.34C5101.96 4330.9 5300.68 4301.31 5630.45 3967.25C5698.56 3898.24 5722.04 3820.4 5712.88 3734.69C6324.07 3284.73 6600.61 2551.29 5780.06 1814.5C5739.73 1778.29 5699.03 1741.5 5657.95 1704.38C5464.22 1529.31 5262.37 1346.9 5054.01 1182.97V780.447C5325.26 588.404 5386.99 356.872 5054.01 118.688V0.000625624H4855.36C4801.5 -27.5183 4742.02 -55.0532 4676.65 -82.5543C3804.24 -449.551 3119.6 -319.205 2626.44 0.000625624H2097.97C1143.61 -375.159 65.677 -652.527 -1024.2 -4.64198ZM2437.59 138.517C2326.31 91.8905 2213.04 45.2347 2097.97 0.000625624H0.0136702V339.034C329.89 390.577 558.11 473.973 377.962 657.705C-115.942 1161.44 -77.001 1693.98 273.308 1704.14C173.155 1907.14 77.4966 2145.42 0.0136702 2391.74V3786H1953.13C1980.02 3823.7 2010.95 3858.58 2045.3 3890.88C2061.79 3856.82 2077.74 3821.81 2093.03 3786H3141.91C3527.71 4002.29 4190.19 4173.86 4566.74 4255.91C4841.89 4195.7 5137.23 4079.85 5504.15 3870.18C5576.99 3828.55 5646.89 3783.27 5712.88 3734.69C5691.48 3534.42 5491.89 3291.18 5267.17 3017.32L5267.17 3017.32C5197.01 2931.82 5124.41 2843.34 5054.01 2752.25V1182.97C4948.87 1100.24 4842.07 1022.23 4733.82 952.236C4858.09 899.776 4966.86 842.15 5054.01 780.447V118.688C4998.89 79.2583 4932.95 39.6461 4855.36 0.000625624H2626.44C2560.01 42.9975 2497.06 89.4211 2437.59 138.517ZM3366.51 715.389C3836.6 518.083 4296.97 669.777 4733.82 952.236C4601.56 1008.07 4451.75 1058.06 4291.8 1100.88C3665.07 1268.66 3233.44 1325.31 2791.55 1338.94C3204.75 1174.08 3465.06 954.058 3366.51 715.389ZM2623.14 1342.18C2477.97 1343.42 2328.99 1341.05 2169.21 1337.37C1816.97 1329.28 1776.89 795.62 2271.77 290.889C2323.65 237.98 2378.92 186.948 2437.59 138.517C2503.86 166.287 2569.43 194.045 2634.25 221.488L2634.31 221.514L2634.32 221.517C2684.27 242.667 2733.79 263.629 2782.83 284.262C3128.03 429.474 3308.8 575.628 3366.51 715.389C3129.61 814.821 2890.23 1002.88 2650.15 1307.51C2641.13 1318.96 2632.12 1330.52 2623.14 1342.18ZM2565.25 1419.1C2584.43 1393 2603.74 1367.35 2623.14 1342.18C2679.72 1341.69 2735.72 1340.66 2791.55 1338.94C2720.31 1367.36 2644.52 1394.15 2565.25 1419.1ZM2107.59 2186.57C2235.97 1914.78 2395.78 1649.65 2565.25 1419.1C2511.02 1436.17 2455.15 1452.39 2397.99 1467.7C2137.17 1537.52 1910.13 1588.1 1702.09 1624.34C1268.79 1072.76 782.852 698.256 291.687 1667.38C285.546 1679.5 279.419 1691.75 273.308 1704.14C274.004 1704.16 274.7 1704.17 275.398 1704.19C785.184 1715.91 1184.98 1714.42 1702.09 1624.34C1800.99 1750.24 1897.14 1885.36 1990 2015.84L1990.03 2015.89C2013.21 2048.46 2036.18 2080.75 2058.94 2112.52C2076.25 2136.69 2092.45 2161.39 2107.59 2186.57ZM2107.59 2186.57C1834.08 2765.63 1703.28 3374.94 1925.92 3744.57C1934.46 3758.74 1943.54 3772.55 1953.13 3786H2093.03C2301.9 3297.04 2390.44 2657.08 2107.59 2186.57ZM3141.91 3786C2990.92 3701.35 2882.31 3609.85 2849.81 3514.19C2775.26 3294.79 2974.92 3256.09 3227.26 3207.18C3489.36 3156.38 3808.29 3094.57 3935.78 2807.78C4405.17 1751.93 4439.18 1806.47 4786.98 2364.39C4804.69 2392.79 4823.21 2422.5 4842.64 2453.44C4906.88 2555.69 4979.2 2655.44 5054.01 2752.25V3786H3141.91Z" fill="url(#paint1_linear)"/>
</g>
<defs>
<linearGradient id="paint0_linear" x1="2525" y1="0" x2="2525" y2="3777" gradientUnits="userSpaceOnUse">
<stop stop-color="#FF9C7D"/>
<stop offset="0.19115" stop-color="#FF9A7A"/>
<stop offset="1" stop-color="#FF916E"/>
</linearGradient>
<linearGradient id="paint1_linear" x1="2574.48" y1="-393" x2="2574.48" y2="4541.96" gradientUnits="userSpaceOnUse">
<stop stop-color="#675B99"/>
<stop offset="1" stop-color="#675B99"/>
</linearGradient>
<clipPath id="clip0">
<rect width="5050" height="3777" fill="white"/>
</clipPath>
</defs>
</svg>
